<svg width="19" height="20" viewBox="0 0 19 20" fill="none" xmlns="http://www.w3.org/2000/svg">
<path opacity="0.4" d="M9.50016 17.9166C13.8724 17.9166 17.4168 14.3722 17.4168 9.99992C17.4168 5.62766 13.8724 2.08325 9.50016 2.08325C5.12791 2.08325 1.5835 5.62766 1.5835 9.99992C1.5835 14.3722 5.12791 17.9166 9.50016 17.9166Z" fill="white"/>
<path d="M8.50242 13.3882C8.352 13.3882 8.20158 13.3328 8.08283 13.214C7.85325 12.9845 7.85325 12.6045 8.08283 12.3749L10.4578 9.99988L8.08283 7.62488C7.85325 7.3953 7.85325 7.0153 8.08283 6.78571C8.31242 6.55613 8.69242 6.55613 8.922 6.78571L11.7166 9.5803C11.9462 9.80988 11.9462 10.1899 11.7166 10.4195L8.922 13.214C8.80325 13.3328 8.65283 13.3882 8.50242 13.3882Z" fill="white"/>
</svg>
