<svg width="18" height="18" viewBox="0 0 18 18" fill="none" xmlns="http://www.w3.org/2000/svg">
<path d="M9.88406 8.89495C9.58406 8.89495 9.31406 8.72995 9.18656 8.45995L8.09906 6.29245L7.78406 6.87745C7.61156 7.19995 7.26656 7.40245 6.89906 7.40245H6.35156C6.04406 7.40245 5.78906 7.14745 5.78906 6.83995C5.78906 6.53245 6.04406 6.27745 6.35156 6.27745H6.83156L7.42406 5.18245C7.56656 4.92745 7.85156 4.75495 8.12156 4.76995C8.41406 4.76995 8.67656 4.94245 8.81156 5.19745L9.88406 7.34245L10.1391 6.82495C10.3116 6.47995 10.6491 6.26995 11.0391 6.26995H11.6466C11.9541 6.26995 12.2091 6.52495 12.2091 6.83245C12.2091 7.13995 11.9541 7.39495 11.6466 7.39495H11.1141L10.5816 8.45245C10.4466 8.72995 10.1841 8.89495 9.88406 8.89495Z" fill="white"/>
<path d="M2.06383 13.9876C1.75633 13.9876 1.50133 13.7326 1.50133 13.4251V9.1501C1.46383 7.1176 2.22133 5.1976 3.63133 3.7576C5.04133 2.3251 6.93133 1.5376 8.96383 1.5376C13.1188 1.5376 16.5013 4.9201 16.5013 9.0751V13.3501C16.5013 13.6576 16.2463 13.9126 15.9388 13.9126C15.6313 13.9126 15.3763 13.6576 15.3763 13.3501V9.0751C15.3763 5.5426 12.5038 2.6626 8.96383 2.6626C7.23133 2.6626 5.62633 3.3301 4.43383 4.5451C3.23383 5.7676 2.59633 7.3951 2.62633 9.1351V13.4176C2.62633 13.7326 2.37883 13.9876 2.06383 13.9876Z" fill="white"/>
<path d="M4.455 9.3374H4.3575C2.7825 9.3374 1.5 10.6199 1.5 12.1949V13.6049C1.5 15.1799 2.7825 16.4624 4.3575 16.4624H4.455C6.03 16.4624 7.3125 15.1799 7.3125 13.6049V12.1949C7.3125 10.6199 6.03 9.3374 4.455 9.3374Z" fill="white"/>
<path d="M13.6425 9.3374H13.545C11.97 9.3374 10.6875 10.6199 10.6875 12.1949V13.6049C10.6875 15.1799 11.97 16.4624 13.545 16.4624H13.6425C15.2175 16.4624 16.5 15.1799 16.5 13.6049V12.1949C16.5 10.6199 15.2175 9.3374 13.6425 9.3374Z" fill="white"/>
</svg>
