<svg width="76" height="70" viewBox="0 0 76 70" fill="none" xmlns="http://www.w3.org/2000/svg">
<path d="M10.6035 57.438V37.8732H40.1154V27.1761H23.5381V0.0747986L12.9394 6.24619V27.1761H10.6035V7.60794L0 13.7856V51.2635L10.6035 57.438Z" fill="#A0FF00"/>
<path d="M23.5381 52.5615V38.4503H12.9395V58.7995L32.1774 70L51.291 58.8694V37.8735V37.8731H53.7482V57.438L64.3516 51.2634V13.7855L53.7482 7.60792V27.176H51.291V27.1753V6.17605L40.6876 0V52.8205L32.3349 57.6858L23.5381 52.5615Z" fill="#A0FF00"/>
<path d="M69.5881 21.258V17.3667H71.5601C71.7183 17.3667 71.8905 17.4124 72.0768 17.5038C72.2631 17.5917 72.4213 17.7287 72.5514 17.915C72.6849 18.0978 72.7517 18.3298 72.7517 18.6111C72.7517 18.8958 72.6832 19.1383 72.5461 19.3387C72.409 19.5356 72.242 19.685 72.0452 19.7869C71.8518 19.8888 71.6691 19.9398 71.4968 19.9398H70.0732V19.3071H71.2332C71.3492 19.3071 71.474 19.2491 71.6075 19.1331C71.7446 19.0171 71.8132 18.8431 71.8132 18.6111C71.8132 18.372 71.7446 18.2103 71.6075 18.126C71.474 18.0416 71.3562 17.9994 71.2543 17.9994H70.4422V21.258H69.5881ZM71.9397 19.4231L72.9099 21.258H71.9714L71.0223 19.4231H71.9397ZM71.0644 23.578C70.4809 23.578 69.9343 23.4691 69.4246 23.2511C68.9149 23.0332 68.4667 22.7309 68.08 22.3442C67.6934 21.9575 67.3911 21.5093 67.1731 20.9996C66.9552 20.4899 66.8462 19.9433 66.8462 19.3598C66.8462 18.7763 66.9552 18.2297 67.1731 17.72C67.3911 17.2103 67.6934 16.7621 68.08 16.3754C68.4667 15.9887 68.9149 15.6864 69.4246 15.4685C69.9343 15.2505 70.4809 15.1416 71.0644 15.1416C71.648 15.1416 72.1946 15.2505 72.7043 15.4685C73.214 15.6864 73.6622 15.9887 74.0488 16.3754C74.4355 16.7621 74.7378 17.2103 74.9558 17.72C75.1737 18.2297 75.2827 18.7763 75.2827 19.3598C75.2827 19.9433 75.1737 20.4899 74.9558 20.9996C74.7378 21.5093 74.4355 21.9575 74.0488 22.3442C73.6622 22.7309 73.214 23.0332 72.7043 23.2511C72.1946 23.4691 71.648 23.578 71.0644 23.578ZM71.0644 22.5657C71.655 22.5657 72.1928 22.4215 72.6779 22.1333C73.163 21.845 73.5497 21.4584 73.8379 20.9733C74.1262 20.4882 74.2703 19.9504 74.2703 19.3598C74.2703 18.7692 74.1262 18.2314 73.8379 17.7463C73.5497 17.2612 73.163 16.8745 72.6779 16.5863C72.1928 16.2981 71.655 16.1539 71.0644 16.1539C70.4739 16.1539 69.9361 16.2981 69.451 16.5863C68.9659 16.8745 68.5792 17.2612 68.2909 17.7463C68.0027 18.2314 67.8586 18.7692 67.8586 19.3598C67.8586 19.9504 68.0027 20.4882 68.2909 20.9733C68.5792 21.4584 68.9659 21.845 69.451 22.1333C69.9361 22.4215 70.4739 22.5657 71.0644 22.5657Z" fill="#A0FF00"/>
</svg>
