<svg width="180" height="42" viewBox="0 0 180 42" fill="none" xmlns="http://www.w3.org/2000/svg">
<path d="M4.27865 29.9751V22.1492H16.1871V17.8703H9.49795V7.02982L5.22124 9.49838V17.8703H4.27865V10.0431L0 12.5141V27.5053L4.27865 29.9751Z" fill="#A0FF00"/>
<path d="M9.49742 28.0246V22.3801H5.2207V30.5198L12.9835 35L20.6961 30.5478V22.1494V22.1493H21.6876V29.9752L25.9662 27.5054V12.5142L21.6876 10.0432V17.8704H20.6961V17.8701V9.47042L16.4175 7V28.1282L13.047 30.0743L9.49742 28.0246Z" fill="#A0FF00"/>
<path d="M28.0684 15.9033V14.3467H28.8572C28.9205 14.3467 28.9894 14.365 29.0639 14.4016C29.1385 14.4367 29.2017 14.4915 29.2538 14.5661C29.3072 14.6392 29.3339 14.732 29.3339 14.8445C29.3339 14.9584 29.3065 15.0554 29.2516 15.1355C29.1968 15.2143 29.13 15.274 29.0513 15.3148C28.9739 15.3556 28.9008 15.376 28.8319 15.376H28.2625V15.1229H28.7265C28.7729 15.1229 28.8228 15.0997 28.8762 15.0533C28.9311 15.0069 28.9585 14.9373 28.9585 14.8445C28.9585 14.7489 28.9311 14.6842 28.8762 14.6504C28.8228 14.6167 28.7757 14.5998 28.7349 14.5998H28.4101V15.9033H28.0684ZM29.0091 15.1693L29.3972 15.9033H29.0217L28.6421 15.1693H29.0091ZM28.659 16.8313C28.4256 16.8313 28.2069 16.7877 28.003 16.7005C27.7992 16.6133 27.6199 16.4924 27.4652 16.3377C27.3105 16.1831 27.1896 16.0038 27.1024 15.7999C27.0153 15.596 26.9717 15.3774 26.9717 15.144C26.9717 14.9106 27.0153 14.6919 27.1024 14.488C27.1896 14.2841 27.3105 14.1049 27.4652 13.9502C27.6199 13.7955 27.7992 13.6746 28.003 13.5874C28.2069 13.5003 28.4256 13.4567 28.659 13.4567C28.8924 13.4567 29.111 13.5003 29.3149 13.5874C29.5188 13.6746 29.6981 13.7955 29.8527 13.9502C30.0074 14.1049 30.1283 14.2841 30.2155 14.488C30.3027 14.6919 30.3463 14.9106 30.3463 15.144C30.3463 15.3774 30.3027 15.596 30.2155 15.7999C30.1283 16.0038 30.0074 16.1831 29.8527 16.3377C29.6981 16.4924 29.5188 16.6133 29.3149 16.7005C29.111 16.7877 28.8924 16.8313 28.659 16.8313ZM28.659 16.4263C28.8952 16.4263 29.1103 16.3687 29.3044 16.2534C29.4984 16.1381 29.6531 15.9834 29.7684 15.7894C29.8837 15.5953 29.9413 15.3802 29.9413 15.144C29.9413 14.9077 29.8837 14.6926 29.7684 14.4986C29.6531 14.3045 29.4984 14.1499 29.3044 14.0346C29.1103 13.9193 28.8952 13.8616 28.659 13.8616C28.4228 13.8616 28.2076 13.9193 28.0136 14.0346C27.8195 14.1499 27.6649 14.3045 27.5496 14.4986C27.4343 14.6926 27.3766 14.9077 27.3766 15.144C27.3766 15.3802 27.4343 15.5953 27.5496 15.7894C27.6649 15.9834 27.8195 16.1381 28.0136 16.2534C28.2076 16.3687 28.4228 16.4263 28.659 16.4263Z" fill="#A0FF00"/>
<path d="M43.9293 29V12.8258H46.8593V19.673H54.3541V12.8258H57.292V29H54.3541V22.1291H46.8593V29H43.9293ZM63.843 29.2448C63.0743 29.2448 62.382 29.1079 61.766 28.8342C61.1552 28.5551 60.6708 28.1444 60.3128 27.6021C59.9601 27.0598 59.7837 26.3912 59.7837 25.5961C59.7837 24.9117 59.91 24.3457 60.1628 23.8982C60.4155 23.4506 60.7604 23.0926 61.1974 22.8241C61.6344 22.5556 62.1266 22.3529 62.6742 22.216C63.227 22.0738 63.7983 21.9712 64.388 21.908C65.0988 21.8343 65.6753 21.7684 66.1175 21.7105C66.5598 21.6474 66.881 21.5526 67.081 21.4262C67.2864 21.2946 67.3891 21.0919 67.3891 20.8181V20.7707C67.3891 20.1758 67.2127 19.7151 66.8599 19.3886C66.5072 19.0622 65.9991 18.899 65.3357 18.899C64.6354 18.899 64.08 19.0517 63.6693 19.3571C63.2639 19.6624 62.9901 20.0231 62.8479 20.439L60.1786 20.0599C60.3892 19.3228 60.7367 18.7068 61.221 18.2119C61.7054 17.7117 62.2977 17.3379 62.998 17.0904C63.6983 16.8377 64.4722 16.7114 65.3199 16.7114C65.9043 16.7114 66.4861 16.7798 67.0653 16.9167C67.6444 17.0536 68.1735 17.28 68.6527 17.5959C69.1318 17.9065 69.5161 18.3304 69.8057 18.8674C70.1006 19.4044 70.248 20.0757 70.248 20.8813V29H67.4996V27.3336H67.4049C67.2311 27.6706 66.9863 27.9865 66.6704 28.2813C66.3597 28.5709 65.9675 28.8052 65.4936 28.9842C65.025 29.158 64.4748 29.2448 63.843 29.2448ZM64.5854 27.1441C65.1593 27.1441 65.6569 27.0309 66.0781 26.8045C66.4993 26.5728 66.8231 26.2674 67.0495 25.8884C67.2811 25.5093 67.397 25.096 67.397 24.6484V23.219C67.3074 23.2927 67.1548 23.3611 66.9389 23.4243C66.7283 23.4875 66.4914 23.5428 66.2281 23.5902C65.9649 23.6375 65.7042 23.6797 65.4463 23.7165C65.1883 23.7534 64.9645 23.785 64.775 23.8113C64.3485 23.8692 63.9668 23.964 63.6298 24.0956C63.2928 24.2272 63.027 24.4115 62.8322 24.6484C62.6373 24.8801 62.5399 25.1802 62.5399 25.5488C62.5399 26.0753 62.7321 26.4728 63.1165 26.7413C63.5008 27.0098 63.9905 27.1441 64.5854 27.1441ZM78.4141 29.2369C77.2031 29.2369 76.1633 28.971 75.2945 28.4393C74.4311 27.9075 73.765 27.173 73.2964 26.2358C72.8331 25.2934 72.6015 24.2088 72.6015 22.982C72.6015 21.75 72.8384 20.6628 73.3122 19.7203C73.7861 18.7726 74.4548 18.0355 75.3182 17.509C76.187 16.9773 77.2136 16.7114 78.3983 16.7114C79.3828 16.7114 80.2542 16.893 81.0124 17.2563C81.7758 17.6143 82.3839 18.1224 82.8367 18.7805C83.2895 19.4334 83.5475 20.1968 83.6107 21.0708H80.8781C80.7676 20.4864 80.5043 19.9994 80.0884 19.6098C79.6777 19.2149 79.1275 19.0175 78.4378 19.0175C77.8533 19.0175 77.34 19.1754 76.8977 19.4913C76.4555 19.802 76.1106 20.2495 75.8632 20.8339C75.621 21.4183 75.4999 22.1186 75.4999 22.9347C75.4999 23.7613 75.621 24.4721 75.8632 25.067C76.1053 25.6567 76.4449 26.1121 76.8819 26.4333C77.3242 26.7492 77.8428 26.9071 78.4378 26.9071C78.859 26.9071 79.2354 26.8282 79.5671 26.6702C79.9041 26.507 80.1858 26.2727 80.4122 25.9673C80.6386 25.662 80.7939 25.2908 80.8781 24.8538H83.6107C83.5422 25.712 83.2895 26.4728 82.8525 27.1362C82.4155 27.7943 81.8206 28.3103 81.0677 28.6841C80.3148 29.0527 79.4302 29.2369 78.4141 29.2369ZM88.5644 25.1934L88.5565 21.7421H89.0146L93.3741 16.8693H96.7147L91.3523 22.8399H90.76L88.5644 25.1934ZM85.9582 29V12.8258H88.8172V29H85.9582ZM93.5715 29L89.6227 23.4796L91.5497 21.4657L96.9912 29H93.5715ZM103.491 29.2369C102.275 29.2369 101.224 28.9842 100.34 28.4788C99.4605 27.968 98.7839 27.2467 98.3101 26.3148C97.8362 25.3776 97.5993 24.2746 97.5993 23.0057C97.5993 21.7579 97.8362 20.6628 98.3101 19.7203C98.7892 18.7726 99.4578 18.0355 100.316 17.509C101.174 16.9773 102.182 16.7114 103.341 16.7114C104.088 16.7114 104.794 16.8325 105.457 17.0747C106.126 17.3116 106.716 17.6801 107.226 18.1803C107.742 18.6805 108.148 19.3176 108.443 20.0915C108.737 20.8602 108.885 21.7763 108.885 22.8399V23.7165H98.9419V21.7895H106.144C106.139 21.2419 106.021 20.7549 105.789 20.3285C105.557 19.8967 105.234 19.5571 104.818 19.3097C104.407 19.0622 103.928 18.9385 103.38 18.9385C102.796 18.9385 102.283 19.0806 101.84 19.365C101.398 19.644 101.053 20.0126 100.806 20.4706C100.563 20.9234 100.44 21.421 100.435 21.9633V23.6454C100.435 24.351 100.563 24.9564 100.821 25.4619C101.079 25.9621 101.44 26.3464 101.903 26.6149C102.367 26.8782 102.909 27.0098 103.53 27.0098C103.946 27.0098 104.323 26.9519 104.66 26.8361C104.997 26.715 105.289 26.5386 105.536 26.3069C105.784 26.0753 105.971 25.7883 106.097 25.4461L108.766 25.7462C108.598 26.4517 108.277 27.0677 107.803 27.5942C107.334 28.1155 106.734 28.5209 106.002 28.8105C105.27 29.0948 104.433 29.2369 103.491 29.2369ZM111.304 29V16.8693H114.076V18.8911H114.202C114.423 18.1908 114.802 17.6512 115.339 17.2721C115.882 16.8877 116.5 16.6956 117.195 16.6956C117.353 16.6956 117.529 16.7035 117.724 16.7193C117.924 16.7298 118.09 16.7482 118.222 16.7745V19.4044C118.101 19.3623 117.909 19.3255 117.645 19.2939C117.387 19.257 117.137 19.2386 116.895 19.2386C116.374 19.2386 115.905 19.3518 115.489 19.5782C115.079 19.7993 114.755 20.1073 114.518 20.5022C114.281 20.8971 114.162 21.3525 114.162 21.8685V29H111.304ZM131.326 16.8693L127.006 29H123.847L119.527 16.8693H122.575L125.363 25.8805H125.49L128.285 16.8693H131.326ZM138.262 29.2369C137.046 29.2369 135.995 28.9842 135.111 28.4788C134.232 27.968 133.555 27.2467 133.081 26.3148C132.607 25.3776 132.37 24.2746 132.37 23.0057C132.37 21.7579 132.607 20.6628 133.081 19.7203C133.56 18.7726 134.229 18.0355 135.087 17.509C135.945 16.9773 136.954 16.7114 138.112 16.7114C138.86 16.7114 139.565 16.8325 140.228 17.0747C140.897 17.3116 141.487 17.6801 141.997 18.1803C142.513 18.6805 142.919 19.3176 143.214 20.0915C143.509 20.8602 143.656 21.7763 143.656 22.8399V23.7165H133.713V21.7895H140.916C140.91 21.2419 140.792 20.7549 140.56 20.3285C140.328 19.8967 140.005 19.5571 139.589 19.3097C139.178 19.0622 138.699 18.9385 138.151 18.9385C137.567 18.9385 137.054 19.0806 136.611 19.365C136.169 19.644 135.824 20.0126 135.577 20.4706C135.335 20.9234 135.211 21.421 135.206 21.9633V23.6454C135.206 24.351 135.335 24.9564 135.593 25.4619C135.851 25.9621 136.211 26.3464 136.675 26.6149C137.138 26.8782 137.68 27.0098 138.301 27.0098C138.717 27.0098 139.094 26.9519 139.431 26.8361C139.768 26.715 140.06 26.5386 140.307 26.3069C140.555 26.0753 140.742 25.7883 140.868 25.4461L143.538 25.7462C143.369 26.4517 143.048 27.0677 142.574 27.5942C142.105 28.1155 141.505 28.5209 140.773 28.8105C140.042 29.0948 139.204 29.2369 138.262 29.2369ZM146.075 29V16.8693H148.847V18.8911H148.973C149.194 18.1908 149.573 17.6512 150.11 17.2721C150.653 16.8877 151.271 16.6956 151.966 16.6956C152.124 16.6956 152.301 16.7035 152.495 16.7193C152.695 16.7298 152.861 16.7482 152.993 16.7745V19.4044C152.872 19.3623 152.68 19.3255 152.416 19.2939C152.158 19.257 151.908 19.2386 151.666 19.2386C151.145 19.2386 150.676 19.3518 150.26 19.5782C149.85 19.7993 149.526 20.1073 149.289 20.5022C149.052 20.8971 148.934 21.3525 148.934 21.8685V29H146.075ZM164.48 20.0757L161.874 20.36C161.8 20.0968 161.671 19.8493 161.487 19.6177C161.308 19.386 161.066 19.1991 160.76 19.0569C160.455 18.9148 160.081 18.8437 159.639 18.8437C159.044 18.8437 158.544 18.9727 158.138 19.2307C157.738 19.4887 157.541 19.823 157.546 20.2337C157.541 20.5864 157.67 20.8734 157.933 21.0945C158.201 21.3157 158.644 21.4973 159.26 21.6395L161.329 22.0817C162.477 22.3292 163.33 22.7214 163.888 23.2585C164.451 23.7955 164.735 24.4984 164.741 25.3671C164.735 26.1305 164.512 26.8045 164.069 27.3889C163.632 27.968 163.024 28.4208 162.245 28.7473C161.466 29.0737 160.571 29.2369 159.56 29.2369C158.075 29.2369 156.88 28.9263 155.974 28.305C155.069 27.6785 154.529 26.8071 154.355 25.6909L157.143 25.4224C157.269 25.97 157.538 26.3833 157.949 26.6623C158.359 26.9414 158.894 27.0809 159.552 27.0809C160.231 27.0809 160.776 26.9414 161.187 26.6623C161.603 26.3833 161.811 26.0384 161.811 25.6277C161.811 25.2802 161.676 24.9933 161.408 24.7669C161.145 24.5405 160.734 24.3668 160.176 24.2457L158.107 23.8113C156.943 23.5691 156.082 23.1611 155.524 22.5872C154.966 22.008 154.69 21.2762 154.695 20.3916C154.69 19.644 154.892 18.9964 155.303 18.4488C155.719 17.896 156.295 17.4695 157.033 17.1694C157.775 16.8641 158.63 16.7114 159.599 16.7114C161.021 16.7114 162.14 17.0141 162.956 17.6196C163.777 18.2251 164.285 19.0438 164.48 20.0757ZM172.468 29.2369C171.252 29.2369 170.202 28.9842 169.317 28.4788C168.438 27.968 167.761 27.2467 167.288 26.3148C166.814 25.3776 166.577 24.2746 166.577 23.0057C166.577 21.7579 166.814 20.6628 167.288 19.7203C167.767 18.7726 168.435 18.0355 169.293 17.509C170.152 16.9773 171.16 16.7114 172.318 16.7114C173.066 16.7114 173.771 16.8325 174.435 17.0747C175.103 17.3116 175.693 17.6801 176.204 18.1803C176.72 18.6805 177.125 19.3176 177.42 20.0915C177.715 20.8602 177.862 21.7763 177.862 22.8399V23.7165H167.919V21.7895H175.122C175.117 21.2419 174.998 20.7549 174.767 20.3285C174.535 19.8967 174.211 19.5571 173.795 19.3097C173.384 19.0622 172.905 18.9385 172.358 18.9385C171.773 18.9385 171.26 19.0806 170.818 19.365C170.375 19.644 170.031 20.0126 169.783 20.4706C169.541 20.9234 169.417 21.421 169.412 21.9633V23.6454C169.412 24.351 169.541 24.9564 169.799 25.4619C170.057 25.9621 170.418 26.3464 170.881 26.6149C171.344 26.8782 171.887 27.0098 172.508 27.0098C172.924 27.0098 173.3 26.9519 173.637 26.8361C173.974 26.715 174.266 26.5386 174.514 26.3069C174.761 26.0753 174.948 25.7883 175.075 25.4461L177.744 25.7462C177.575 26.4517 177.254 27.0677 176.78 27.5942C176.312 28.1155 175.712 28.5209 174.98 28.8105C174.248 29.0948 173.411 29.2369 172.468 29.2369Z" fill="white"/>
</svg>
