<svg width="22" height="22" viewBox="0 0 22 22" fill="none" xmlns="http://www.w3.org/2000/svg">
<path d="M7.79036 17.4166H7.33203C3.66536 17.4166 1.83203 16.4999 1.83203 11.9166V7.33325C1.83203 3.66659 3.66536 1.83325 7.33203 1.83325H14.6654C18.332 1.83325 20.1654 3.66659 20.1654 7.33325V11.9166C20.1654 15.5833 18.332 17.4166 14.6654 17.4166H14.207C13.9229 17.4166 13.6479 17.5541 13.4737 17.7833L12.0987 19.6166C11.4937 20.4233 10.5037 20.4233 9.8987 19.6166L8.5237 17.7833C8.37703 17.5816 8.03786 17.4166 7.79036 17.4166Z" stroke="white" stroke-width="1.375" stroke-miterlimit="10" stroke-linecap="round" stroke-linejoin="round"/>
<path d="M14.6642 10.0833H14.6725" stroke="white" stroke-width="1.83333" stroke-linecap="round" stroke-linejoin="round"/>
<path d="M10.9963 10.0833H11.0045" stroke="white" stroke-width="1.83333" stroke-linecap="round" stroke-linejoin="round"/>
<path d="M7.3283 10.0833H7.33653" stroke="white" stroke-width="1.83333" stroke-linecap="round" stroke-linejoin="round"/>
</svg>
