<svg width="14" height="18" viewBox="0 0 14 18" fill="none" xmlns="http://www.w3.org/2000/svg">
<path d="M13 5.25V12.75C13 15.75 12.25 16.5 9.25 16.5H4.75C1.75 16.5 1 15.75 1 12.75V5.25C1 2.25 1.75 1.5 4.75 1.5H9.25C12.25 1.5 13 2.25 13 5.25Z" stroke="white" stroke-width="1.125" stroke-linecap="round" stroke-linejoin="round"/>
<path d="M8.5 4.125H5.5" stroke="white" stroke-width="1.125" stroke-linecap="round" stroke-linejoin="round"/>
<path d="M7.00039 14.325C7.64242 14.325 8.16289 13.8045 8.16289 13.1625C8.16289 12.5205 7.64242 12 7.00039 12C6.35836 12 5.83789 12.5205 5.83789 13.1625C5.83789 13.8045 6.35836 14.325 7.00039 14.325Z" stroke="white" stroke-width="1.125" stroke-linecap="round" stroke-linejoin="round"/>
</svg>
