<svg width="22" height="22" viewBox="0 0 22 22" fill="none" xmlns="http://www.w3.org/2000/svg">
<path d="M10.9979 1.90894C8.61605 1.90894 6.67969 3.8453 6.67969 6.22712C6.67969 8.56348 8.50696 10.4544 10.8888 10.5362C10.9615 10.5271 11.0342 10.5271 11.0888 10.5362C11.107 10.5362 11.1161 10.5362 11.1342 10.5362C11.1433 10.5362 11.1433 10.5362 11.1524 10.5362C13.4797 10.4544 15.307 8.56348 15.3161 6.22712C15.3161 3.8453 13.3797 1.90894 10.9979 1.90894Z" fill="white"/>
<path d="M15.6197 12.9545C13.0834 11.2636 8.94702 11.2636 6.39247 12.9545C5.23793 13.7272 4.60156 14.7726 4.60156 15.8908C4.60156 17.009 5.23793 18.0454 6.38338 18.809C7.65611 19.6636 9.32884 20.0908 11.0016 20.0908C12.6743 20.0908 14.347 19.6636 15.6197 18.809C16.7652 18.0363 17.4016 16.9999 17.4016 15.8726C17.3925 14.7545 16.7652 13.7181 15.6197 12.9545Z" fill="white"/>
</svg>
