<svg width="18" height="18" viewBox="0 0 18 18" fill="none" xmlns="http://www.w3.org/2000/svg">
<path d="M15.6814 8.33998C15.6814 12.0075 13.0189 15.4425 9.38142 16.4475C9.13392 16.515 8.8639 16.515 8.6164 16.4475C4.9789 15.4425 2.31641 12.0075 2.31641 8.33998V5.04746C2.31641 4.43246 2.78142 3.73497 3.35892 3.50247L7.5364 1.79249C8.4739 1.40999 9.5314 1.40999 10.4689 1.79249L14.6464 3.50247C15.2164 3.73497 15.6889 4.43246 15.6889 5.04746L15.6814 8.33998Z" stroke="white" stroke-width="1.125" stroke-linecap="round" stroke-linejoin="round"/>
<path d="M9 9.375C9.82843 9.375 10.5 8.70343 10.5 7.875C10.5 7.04657 9.82843 6.375 9 6.375C8.17157 6.375 7.5 7.04657 7.5 7.875C7.5 8.70343 8.17157 9.375 9 9.375Z" stroke="white" stroke-width="1.125" stroke-miterlimit="10" stroke-linecap="round" stroke-linejoin="round"/>
<path d="M9 9.375V11.625" stroke="white" stroke-width="1.125" stroke-miterlimit="10" stroke-linecap="round" stroke-linejoin="round"/>
</svg>
